<svg width="20" height="16" fill="none" xmlns="http://www.w3.org/2000/svg">
    <path d="M19.917 14.035v1.133a.568.568 0 0 1-.567.567H.65a.568.568 0 0 1-.567-.567v-1.133c0 .312.255.567.567.567h18.7a.568.568 0 0 0 .567-.567ZM19.492.364l-6.475 6.474-.34.34-.467.468-.043.042-.934.935c-.68.68-1.786.68-2.466 0l-.935-.935-.042-.042-.468-.468-.34-.34L.508.364A.437.437 0 0 1 .65.35h18.7c.042 0 .1 0 .142.014Z"
          fill="#3E5063"/>
    <path d="M19.917 1.072v13.105a.568.568 0 0 1-.567.566H.65a.568.568 0 0 1-.567-.566V1.072l.425.425 5.908 5.908.24.24-5.624 5.625a.432.432 0 0 0 .297.737.408.408 0 0 0 .298-.128l5.625-5.624.935.935c.495.496 1.147.75 1.799.75.651 0 1.303-.24 1.799-.75l.935-.935 5.624 5.624a.408.408 0 0 0 .595 0c.17-.17.17-.439 0-.609l-5.624-5.624.24-.241 5.937-5.908.425-.425Z"
          fill="#4B687F"/>
</svg>