<svg width="16" height="28" viewBox="0 0 16 28" fill="none" xmlns="http://www.w3.org/2000/svg">
<path d="M13.3334 2.26663V1.19997C13.3334 0.91707 13.2211 0.645759 13.021 0.44572C12.821 0.245681 12.5497 0.133301 12.2668 0.133301C11.9839 0.133301 11.7126 0.245681 11.5125 0.44572C11.3125 0.645759 11.2001 0.91707 11.2001 1.19997V2.26663H2.66678C2.10099 2.26663 1.55836 2.4914 1.15829 2.89147C0.758209 3.29155 0.533447 3.83417 0.533447 4.39997V25.7333C0.533447 26.2991 0.758209 26.8417 1.15829 27.2418C1.55836 27.6419 2.10099 27.8666 2.66678 27.8666H13.3334C13.8992 27.8666 14.4419 27.6419 14.8419 27.2418C15.242 26.8417 15.4668 26.2991 15.4668 25.7333V4.39997C15.4668 3.83417 15.242 3.29155 14.8419 2.89147C14.4419 2.4914 13.8992 2.26663 13.3334 2.26663ZM4.80011 25.7333H2.66678V23.6H4.80011V25.7333ZM4.80011 21.4666H2.66678V19.3333H4.80011V21.4666ZM4.80011 17.2H2.66678V15.0666H4.80011V17.2ZM9.06678 25.7333H6.93345V23.6H9.06678V25.7333ZM9.06678 21.4666H6.93345V19.3333H9.06678V21.4666ZM9.06678 17.2H6.93345V15.0666H9.06678V17.2ZM13.3334 25.7333H11.2001V23.6H13.3334V25.7333ZM13.3334 21.4666H11.2001V19.3333H13.3334V21.4666ZM13.3334 17.2H11.2001V15.0666H13.3334V17.2ZM13.3334 11.8666C13.3334 12.1495 13.2211 12.4208 13.021 12.6209C12.821 12.8209 12.5497 12.9333 12.2668 12.9333H3.73345C3.45055 12.9333 3.17924 12.8209 2.9792 12.6209C2.77916 12.4208 2.66678 12.1495 2.66678 11.8666V5.46663C2.66678 5.18374 2.77916 4.91243 2.9792 4.71239C3.17924 4.51235 3.45055 4.39997 3.73345 4.39997H12.2668C12.5497 4.39997 12.821 4.51235 13.021 4.71239C13.2211 4.91243 13.3334 5.18374 13.3334 5.46663V11.8666Z" fill="#3E5063"/>
</svg>
